<?xml version="1.0" encoding="UTF-8"?>
<svg version="1.1" xmlns="http://www.w3.org/2000/svg" width="256" height="256">
<path d="M0 0 C6.0771362 3.7036624 10.9897502 9.48913969 13.125 16.30859375 C15.06703123 26.03608945 13.02240509 34.31014237 7.5625 42.5 C15.99573782 46.81186231 24.47429263 50.97387909 33.11328125 54.859375 C33.91353729 55.22035278 34.71379333 55.58133057 35.53829956 55.95324707 C38.82486258 57.43381215 42.11260523 58.91140292 45.40698242 60.37451172 C47.85527639 61.46385433 50.2971032 62.56669667 52.73828125 63.671875 C53.48193436 63.99798767 54.22558746 64.32410034 54.99177551 64.66009521 C61.9882229 67.85140514 61.9882229 67.85140514 63.5625 71.5 C63.39698459 77.30147029 61.27817106 82.18071115 59.01953125 87.4296875 C58.65910736 88.28575089 58.29868347 89.14181427 57.92733765 90.02381897 C56.7514586 92.81111397 55.56377685 95.59318412 54.375 98.375 C53.55778278 100.29997105 52.74113718 102.22518486 51.92504883 104.15063477 C50.6833182 107.07912337 49.44059732 110.00716484 48.19419861 112.93367004 C45.56242779 119.11678196 42.9793546 125.31779979 40.4296875 131.53515625 C39.49767218 133.79165962 38.56414066 136.04752703 37.62973022 138.30303955 C37.04725702 139.7162751 36.4694063 141.13142545 35.89639282 142.54852295 C35.10398856 144.50541746 34.29438835 146.45431999 33.48046875 148.40234375 C32.81180786 150.03417603 32.81180786 150.03417603 32.12963867 151.69897461 C30.33868452 154.90003661 28.64774369 156.53682459 25.5625 158.5 C21.84160758 158.5 19.58475053 158.35187544 16.6875 155.9375 C15.0855105 152.46652275 14.87972242 149.30666905 14.5625 145.5 C11.58614947 149.02450642 9.88683493 152.98576864 8.09375 157.1875 C7.77216919 157.92701904 7.45058838 158.66653809 7.1192627 159.4284668 C6.09531689 161.78350488 5.07809658 164.14135039 4.0625 166.5 C2.72475645 169.60681267 1.38015091 172.71051792 0.03125 175.8125 C-0.27196167 176.52301514 -0.57517334 177.23353027 -0.88757324 177.96557617 C-3.84380033 184.76051067 -3.84380033 184.76051067 -6.4375 187.5 C-10.17992886 188.53956357 -12.4009204 188.96961779 -15.98266602 187.34692383 C-18.91546114 185.14040019 -19.85308852 183.35056494 -21.33984375 180.01171875 C-21.83508545 178.91851318 -22.33032715 177.82530762 -22.84057617 176.69897461 C-23.34693604 175.54018799 -23.8532959 174.38140137 -24.375 173.1875 C-24.90134033 172.01517822 -25.42768066 170.84285645 -25.9699707 169.63500977 C-29.21624245 162.37701158 -32.40195812 155.09008176 -35.44921875 147.74609375 C-36.24323123 145.57345335 -36.24323123 145.57345335 -37.4375 144.5 C-37.45167969 145.09167969 -37.46585938 145.68335938 -37.48046875 146.29296875 C-37.74040317 150.59944984 -38.06260804 152.97515126 -40.625 156.5625 C-43.4375 158.5 -43.4375 158.5 -46.5 159.0625 C-50.18044765 158.35773343 -51.03955355 157.34554373 -53.4375 154.5 C-55.03051758 151.40429688 -55.03051758 151.40429688 -56.58203125 147.71875 C-56.86884262 147.0447113 -57.15565399 146.37067261 -57.45115662 145.6762085 C-58.39354964 143.45466525 -59.32183642 141.22752145 -60.25 139 C-60.90579648 137.44596008 -61.56238471 135.89225406 -62.21972656 134.33886719 C-63.95092996 130.23951559 -65.66914489 126.13486182 -67.38262939 122.02807617 C-68.4383658 119.49792505 -69.4960371 116.96859062 -70.55419922 114.43945312 C-74.11413448 105.92783135 -77.66525082 97.41260334 -81.19371033 88.88787842 C-82.70298842 85.23647329 -82.70298842 85.23647329 -84.28674316 81.61706543 C-86.3456501 77.02868755 -87.15330875 74.37650909 -85.4375 69.5 C-80.2881814 65.22765334 -73.70675288 62.62385298 -67.64453125 59.92578125 C-66.28094734 59.3109211 -66.28094734 59.3109211 -64.88981628 58.68363953 C-62.01227904 57.38783824 -59.1311774 56.10018379 -56.25 54.8125 C-54.30511018 53.93735629 -52.36044653 53.06170976 -50.41601562 52.18554688 C-35.16096414 45.32487887 -35.16096414 45.32487887 -30.4375 43.5 C-30.78683594 42.82453125 -31.13617188 42.1490625 -31.49609375 41.453125 C-31.95113281 40.56109375 -32.40617187 39.6690625 -32.875 38.75 C-33.32746094 37.86828125 -33.77992187 36.9865625 -34.24609375 36.078125 C-37.33132993 29.40187621 -37.63918792 21.32731533 -35.375 14.3125 C-32.52141175 7.81858655 -27.42960398 1.98875496 -20.87109375 -0.875 C-14.21341171 -2.58483809 -6.3831411 -2.78718052 0 0 Z M-16.4375 22.5 C-16.77083333 25 -16.77083333 25 -16.4375 27.5 C-14.55249729 29.81563087 -14.55249729 29.81563087 -11.4375 29.75 C-8.32250271 29.81563087 -8.32250271 29.81563087 -6.4375 27.5 C-6.10416667 25 -6.10416667 25 -6.4375 22.5 C-8.32250271 20.18436913 -8.32250271 20.18436913 -11.4375 20.25 C-14.55249729 20.18436913 -14.55249729 20.18436913 -16.4375 22.5 Z " fill="#202E40" transform="translate(139.4375,64.5)"/>
<path d="M0 0 C1.07495117 1.55053711 1.07495117 1.55053711 2.04296875 3.52734375 C2.39423828 4.23697266 2.74550781 4.94660156 3.10742188 5.67773438 C3.46384766 6.42345703 3.82027344 7.16917969 4.1875 7.9375 C4.55552734 8.67935547 4.92355469 9.42121094 5.30273438 10.18554688 C8 15.70518321 8 15.70518321 8 18 C12.05730758 18.55213578 12.05730758 18.55213578 16 18 C18.34650206 15.71743532 19.57117387 12.91661969 21 10 C22.09965914 7.99751809 23.20390055 5.99754632 24.3125 4 C25.21079008 2.33465617 26.10749982 0.66845395 27 -1 C31.79283728 0.49292734 36.27095336 2.39017234 40.8203125 4.484375 C41.5602243 4.82245178 42.30013611 5.16052856 43.06246948 5.5088501 C44.62467998 6.22349776 46.18620181 6.93965257 47.74707031 7.65722656 C50.09524032 8.73632399 52.44585164 9.80994835 54.796875 10.8828125 C63.28159564 14.76527415 71.69359669 18.74624394 80 23 C77.33661497 26.2301265 74.16684453 27.38756555 70.34765625 28.9609375 C69.36459755 29.36960556 69.36459755 29.36960556 68.36167908 29.78652954 C66.26477533 30.65637124 64.16380293 31.51584777 62.0625 32.375 C60.68396075 32.94462557 59.30570255 33.51493182 57.92773438 34.0859375 C55.22473393 35.20475056 52.52034573 36.32008479 49.81445312 37.43188477 C39.59227295 41.61915546 39.59227295 41.61915546 29.4609375 46.01953125 C28.77773437 46.31923828 28.09453125 46.61894531 27.390625 46.92773438 C26.03306922 47.52363822 24.68149831 48.13334417 23.3359375 48.75585938 C15.77768998 52.01249065 9.48070895 52.18487866 1.76235962 49.12559509 C-1.4820432 47.75577534 -4.6790908 46.29117459 -7.875 44.8125 C-9.17239245 44.22677454 -10.47056739 43.64277911 -11.76953125 43.06054688 C-13.68904952 42.1992483 -15.60769377 41.33634421 -17.52319336 40.46614075 C-23.29581596 37.84451445 -29.13705117 35.41062019 -35 33 C-36.77685026 32.255834 -38.55292324 31.50980872 -40.328125 30.76171875 C-41.14667969 30.41689453 -41.96523437 30.07207031 -42.80859375 29.71679688 C-43.61425781 29.37712891 -44.41992188 29.03746094 -45.25 28.6875 C-46.10207031 28.32849609 -46.95414063 27.96949219 -47.83203125 27.59960938 C-49.88810994 26.73328409 -51.9440993 25.86674758 -54 25 C-54 24.01 -54 23.02 -54 22 C-48.98808618 19.68639388 -43.97501466 17.3753202 -38.9609375 15.06640625 C-37.26173784 14.28354236 -35.56283528 13.50003325 -33.86425781 12.71582031 C-28.25142761 10.12477355 -22.62974596 7.55407102 -17 5 C-16.28525513 4.67342407 -15.57051025 4.34684814 -14.83410645 4.01037598 C-12.88613553 3.12390805 -10.93273555 2.25100002 -8.9765625 1.3828125 C-7.88682129 0.89441895 -6.79708008 0.40602539 -5.67431641 -0.09716797 C-3 -1 -3 -1 0 0 Z " fill="#18AF96" transform="translate(115,115)"/>
<path d="M0 0 C6.78369047 5.69781196 10.46974211 12.88328471 11.37890625 21.65625 C11.72523816 32.82824712 9.52640653 40.04067221 1.92578125 48.2109375 C-5.57796323 55.18196178 -13.54902311 57.50459796 -23.68359375 57.30859375 C-33.36309211 56.40791016 -40.34065341 51.45368812 -46.53515625 44.203125 C-52.60619523 36.20280541 -52.80187074 27.77470278 -52 18 C-50.38885376 10.79325604 -46.67759539 4.72626925 -41 0 C-27.00077794 -8.62502406 -13.94912128 -9.1466381 0 0 Z " fill="#262D3F" transform="translate(81,18)"/>
<path d="M0 0 C2.74953163 1.08654961 4.56377731 2.22358762 7 4 C7.9375 6.25 7.9375 6.25 8 8 C9.03060547 7.51853516 9.03060547 7.51853516 10.08203125 7.02734375 C17.29664705 4.48725813 25.67682953 4.89974743 32.5625 8.1875 C39.40721472 12.19143443 45.09639788 18.25394176 47.6328125 25.91015625 C48.07552237 28.42983476 48.13216598 30.81674638 48.125 33.375 C48.12242187 34.344375 48.11984375 35.31375 48.1171875 36.3125 C48 39 48 39 47.25 42.375 C46.69324612 45.15652523 46.69324612 45.15652523 48.8125 47.5 C49.534375 48.325 50.25625 49.15 51 50 C52.96125822 54.38948269 53.26882917 57.34762638 52 62 C49.63907851 64.36092149 49.03749516 64.31949234 45.8125 64.375 C42.33344156 64.33068078 40.39697324 63.87262876 37.5625 61.875 C35.31010593 60.3838317 34.35923601 59.97282096 31.625 60.1796875 C29.90107111 60.5633668 28.1821273 60.97009318 26.46875 61.3984375 C18.63459643 63.30739264 12.10770337 61.4813241 5 58 C-1.91204635 53.68875753 -5.79582126 47.80176755 -8 40 C-8.66026696 34.43290702 -8.62229614 29.64059891 -6.625 24.375 C-5.73261775 19.55613584 -7.89469592 17.44870065 -10.51171875 13.49609375 C-12.72877586 9.77772238 -13.14906879 7.32299505 -13 3 C-10.06985153 -2.46073124 -5.25226049 -1.38589058 0 0 Z M-5 7 C-3.68 9.64 -2.36 12.28 -1 15 C-0.67 14.34 -0.34 13.68 0 13 C0.99 12.67 1.98 12.34 3 12 C3 11.34 3 10.68 3 10 C-0.80427492 7.7986134 -0.80427492 7.7986134 -5 7 Z M41 52 C41 52.99 41 53.98 41 55 C41.99 55.33 42.98 55.66 44 56 C43.67 54.68 43.34 53.36 43 52 C42.34 52 41.68 52 41 52 Z " fill="#232D3F" transform="translate(196,44)"/>
<path d="M0 0 C-0.70296148 4.89205053 -2.59308127 9.16514952 -4.5 13.68359375 C-4.85208023 14.52826202 -5.20416046 15.3729303 -5.56690979 16.24319458 C-6.70713337 18.9763801 -7.85356787 21.70691363 -9 24.4375 C-9.77908066 26.30243743 -10.55764479 28.16759073 -11.33569336 30.03295898 C-12.49026656 32.80088854 -13.64513438 35.56868974 -14.80174255 38.33576965 C-17.75366049 45.39857637 -20.67286794 52.473948 -23.5625 59.5625 C-24.10680664 60.89655884 -24.10680664 60.89655884 -24.66210938 62.25756836 C-25.44235088 64.17132738 -26.22136795 66.08558559 -27 68 C-27.99 68 -28.98 68 -30 68 C-30.33 61.07 -30.66 54.14 -31 47 C-34.465 46.505 -34.465 46.505 -38 46 C-43.21083863 56.13313245 -47.91795 66.4185615 -52.4375 76.875 C-53.07972773 78.35301689 -53.72230426 79.83088226 -54.36523438 81.30859375 C-55.91416206 84.87067106 -57.45842781 88.43473364 -59 92 C-59.33 92 -59.66 92 -60 92 C-60 69.56 -60 47.12 -60 24 C-49.77 19.71 -39.54 15.42 -29 11 C-24.38 9.02 -19.76 7.04 -15 5 C-9.25 2.6875 -9.25 2.6875 -6.890625 1.76171875 C-2.51794872 0 -2.51794872 0 0 0 Z " fill="#1B4A65" transform="translate(191,148)"/>
<path d="M0 0 C3.96994263 1.57310205 7.91052089 3.20988063 11.84765625 4.86328125 C12.50019882 5.13714157 13.15274139 5.41100189 13.82505798 5.69316101 C15.90437042 6.56588136 17.98344853 7.43915818 20.0625 8.3125 C24.11954889 10.01610512 28.1768137 11.71918996 32.23486328 13.42041016 C34.56264902 14.39627005 36.88899476 15.37528732 39.21435547 16.35693359 C46.43038837 19.39120364 53.68391489 22.18612111 61 25 C61 47.44 61 69.88 61 93 C59.01729406 91.01729406 58.33264723 89.78159423 57.24414062 87.25634766 C56.91039429 86.48860016 56.57664795 85.72085266 56.23278809 84.92984009 C55.87753052 84.09963348 55.52227295 83.26942688 55.15625 82.4140625 C54.78649048 81.56073334 54.41673096 80.70740417 54.0357666 79.82821655 C52.85269968 77.09572145 51.67612579 74.36048898 50.5 71.625 C49.32263467 68.89720462 48.14393847 66.16999106 46.9642334 63.44320679 C46.23025226 61.74553057 45.49785185 60.04716985 44.76721191 58.34805298 C44.43346558 57.57400116 44.09971924 56.79994934 43.75585938 56.00244141 C43.46432983 55.32452545 43.17280029 54.6466095 42.87243652 53.94815063 C42.58453247 53.30526093 42.29662842 52.66237122 42 52 C41.56089294 50.91131119 41.56089294 50.91131119 41.11291504 49.80062866 C40.56202209 48.90931747 40.56202209 48.90931747 40 48 C36.48618881 47.09308537 36.48618881 47.09308537 33 47 C31.38219843 48.61780157 31.77727853 50.45635518 31.68359375 52.69140625 C31.64169922 53.63564453 31.59980469 54.57988281 31.55664062 55.55273438 C31.51732422 56.54595703 31.47800781 57.53917969 31.4375 58.5625 C31.39431641 59.55958984 31.35113281 60.55667969 31.30664062 61.58398438 C31.20019702 64.0558415 31.09818072 66.5278031 31 69 C30.01 69 29.02 69 28 69 C27.78907715 68.46221924 27.5781543 67.92443848 27.36083984 67.37036133 C22.50525563 54.90358903 22.50525563 54.90358903 17.0625 42.6875 C13.76247176 35.74481764 11.05247927 28.58277822 8.33422852 21.39526367 C6.17860747 15.76027582 3.78876295 10.40289587 0.93774414 5.08276367 C0 3 0 3 0 0 Z " fill="#1B4A65" transform="translate(64,147)"/>
<path d="M0 0 C4.79442619 2.70471767 7.94483001 6.05848723 10.5625 10.875 C10.706875 11.90625 10.85125 12.9375 11 14 C11.12503906 14.6703125 11.25007813 15.340625 11.37890625 16.03125 C12.24482414 24.278087 7.96387181 30.86392021 4.15966797 37.84179688 C2.20696042 41.4758884 0.39214054 45.17788168 -1.4375 48.875 C-2.1022374 50.20604257 -2.76755238 51.53679694 -3.43359375 52.8671875 C-3.95050781 53.90101562 -4.46742188 54.93484375 -5 56 C-5.33 56.66 -5.66 57.32 -6 58 C-6.66 58 -7.32 58 -8 58 C-8.49628906 56.91203125 -8.99257812 55.8240625 -9.50390625 54.703125 C-13.17827425 46.72834513 -16.95443182 39.00441332 -21.5546875 31.515625 C-24.96603555 25.57803542 -25.64756106 20.762236 -25 14 C-23.53536379 8.59915399 -20.8776436 4.84047636 -16.5703125 1.34375 C-11.23416449 -1.44596872 -5.77464734 -1.27081749 0 0 Z M-12 17 C-12.33333333 19.5 -12.33333333 19.5 -12 22 C-10.11499729 24.31563087 -10.11499729 24.31563087 -7 24.25 C-3.88500271 24.31563087 -3.88500271 24.31563087 -2 22 C-1.66666667 19.5 -1.66666667 19.5 -2 17 C-3.88500271 14.68436913 -3.88500271 14.68436913 -7 14.75 C-10.11499729 14.68436913 -10.11499729 14.68436913 -12 17 Z " fill="#F75078" transform="translate(135,70)"/>
<path d="M0 0 C2.5625 1.5625 2.5625 1.5625 4 4 C4 7.97534349 3.72970876 10.17613528 1.0625 13.1875 C-1.26823304 16.36577233 -1.47767942 18.14612113 -2 22 C-2.67281146 26.76818559 -3.26507565 29.69192415 -7 33 C-10.83423517 35.72449986 -13.43699445 36.38887102 -18.125 36.3125 C-19.15882812 36.30863281 -20.19265625 36.30476563 -21.2578125 36.30078125 C-24 36 -24 36 -27 34 C-30.30920797 33.93959725 -33.56732449 34.13238478 -36.87109375 34.3203125 C-40 34 -40 34 -42.41015625 32.20703125 C-44 30 -44 30 -44 26.5625 C-42.9270412 22.74008428 -41.88078333 20.71616714 -39 18 C-37.68 18 -36.36 18 -35 18 C-34.78085937 17.48050781 -34.56171875 16.96101563 -34.3359375 16.42578125 C-31.97509859 11.23385503 -29.67728891 8.28405391 -25 5 C-22.32356043 4.10785348 -20.74615622 3.86459789 -18 3.875 C-17.319375 3.87242187 -16.63875 3.86984375 -15.9375 3.8671875 C-14 4 -14 4 -11 5 C-10.814375 4.0409375 -10.814375 4.0409375 -10.625 3.0625 C-10.41875 2.381875 -10.2125 1.70125 -10 1 C-6.79370768 -0.60314616 -3.47853436 -0.48027102 0 0 Z " fill="#202E40" transform="translate(56,191)"/>
<path d="M0 0 C5.12936557 3.13080006 9.31535487 7.16395914 11.2734375 12.92578125 C12.39481162 20.33055747 12.05122101 26.30816458 7.5625 32.4375 C6.51620116 33.64549958 5.40348269 34.79573606 4.2734375 35.92578125 C-3.51502542 35.33300183 -11.2561123 24.48267708 -16.6015625 19.17578125 C-17.14868896 18.6334082 -17.69581543 18.09103516 -18.25952148 17.53222656 C-21.3021518 14.4769362 -24.09771794 11.35470893 -26.7265625 7.92578125 C-24.98720744 3.9354961 -23.05640119 2.09951207 -19.33203125 -0.078125 C-13.16403768 -2.4362035 -6.14117965 -2.4195192 0 0 Z " fill="#FA6F6F" transform="translate(225.7265625,58.07421875)"/>
<path d="M0 0 C3.84944931 1.86127219 6.21226654 4.26068451 7.9765625 8.15625 C9.12407101 12.19326789 9.09374031 14.64847384 8 18.75 C5.79465959 22.33367817 3.8387721 25.18880481 0 27 C-5.04122423 27.93447083 -8.83098496 27.57388011 -13.4375 25.3125 C-17.47803012 21.66616794 -19.15438768 19.0055627 -19.4375 13.5625 C-19.2722151 9.04721696 -18.0285818 6.43784961 -15 3 C-10.66604686 -0.8240763 -5.50318216 -1.02863218 0 0 Z " fill="#262F40" transform="translate(31,103)"/>
<path d="M0 0 C0.55657434 3.47687183 0.74939163 6.54246204 0 10 C-6.39129375 17.02897386 -17.25668191 19.65353534 -26.3671875 20.203125 C-34.55018078 20.31247458 -40.82406749 20.23634769 -47.5 15.0625 C-49 13 -49 13 -49 9 C-48.16662109 9.23976563 -48.16662109 9.23976563 -47.31640625 9.484375 C-38.88690281 11.36075688 -31.04705726 9.55944139 -23 7 C-21.89914063 6.67515625 -20.79828125 6.3503125 -19.6640625 6.015625 C-12.66047025 3.93513808 -12.66047025 3.93513808 -5.875 1.25 C-3 0 -3 0 0 0 Z " fill="#F44D41" transform="translate(85,37)"/>
<path d="M0 0 C1.8125 2.5625 1.8125 2.5625 3 5 C-4.32358345 9.03544394 -12.05026868 11.52500114 -20 14 C-21.18529297 14.37705078 -21.18529297 14.37705078 -22.39453125 14.76171875 C-27.40859967 16.20160398 -32.8278724 16.81804059 -38 16 C-40.26953125 14.66015625 -40.26953125 14.66015625 -42 13 C-42.70491944 8.36767225 -41.66397948 5.77397093 -39 2 C-38.43796875 2.15984375 -37.8759375 2.3196875 -37.296875 2.484375 C-25.18458905 5.2034596 -10.74548266 -3.76091893 0 0 Z " fill="#F24D41" transform="translate(79,26)"/>
<path d="M0 0 C3.15689734 1.60714774 5.19415756 2.97438234 7.375 5.75 C8.33387734 9.20195844 8.5738278 12.48005629 8 16 C5.82012457 19.58122392 3.82672826 21.40494691 0 23 C-4.52455337 23.69608513 -7.9696387 23.61383227 -11.9375 21.25 C-15.53964699 17.3203851 -16.50721808 14.5158339 -16.39453125 9.03515625 C-15.68647817 5.38272403 -13.62465368 3.56216192 -11 1 C-7.52817697 -0.73591152 -3.79591036 -0.46571673 0 0 Z M-9 9 C-9.33333333 11.5 -9.33333333 11.5 -9 14 C-7.11499729 16.31563087 -7.11499729 16.31563087 -4 16.25 C-0.88500271 16.31563087 -0.88500271 16.31563087 1 14 C1.33333333 11.5 1.33333333 11.5 1 9 C-0.88500271 6.68436913 -0.88500271 6.68436913 -4 6.75 C-7.11499729 6.68436913 -7.11499729 6.68436913 -9 9 Z " fill="#292D41" transform="translate(132,78)"/>
<path d="M0 0 C3.09251553 1.81517216 4.58688714 3.28644142 6.375 6.375 C7.17298003 9.72651613 7.03027506 11.70311982 6 15 C2.96784713 18.49863793 0.91140433 20.78279496 -3.75 21.3125 C-7.88549396 20.91485635 -9.83822672 19.65876389 -13 17 C-14.77665262 14.06466089 -15.01779354 12.4270449 -14.875 9 C-13.86530833 5.5382 -12.46052585 3.60964863 -10 1 C-6.79139471 -0.60430264 -3.4809543 -0.48105318 0 0 Z " fill="#222D3F" transform="translate(228,207)"/>
<path d="M0 0 C4.22329017 1.59123966 6.724355 4.76592959 9.625 8.0625 C17.87977014 17.69194264 17.87977014 17.69194264 28 25 C28 25.66 28 26.32 28 27 C14.58872747 27.91998059 14.58872747 27.91998059 8.6484375 23.49609375 C4.20053131 19.45924998 0.20616836 15.18323949 -0.1953125 8.984375 C-0.17210937 7.91703125 -0.14890625 6.8496875 -0.125 5.75 C-0.10695312 4.67234375 -0.08890625 3.5946875 -0.0703125 2.484375 C-0.04710937 1.66453125 -0.02390625 0.8446875 0 0 Z " fill="#F16D6E" transform="translate(195,72)"/>
<path d="M0 0 C-1.49787769 4.49363307 -5.08236876 6.69181647 -9 9 C-15.48653229 12.16630729 -23.86531073 12.38023009 -30.69140625 10.1015625 C-32.875 9 -32.875 9 -36 7 C-36 6.34 -36 5.68 -36 5 C-34.94683594 5.04640625 -33.89367188 5.0928125 -32.80859375 5.140625 C-21.26221611 5.4866797 -10.66472935 0 0 0 Z " fill="#E74B41" transform="translate(81,57)"/>
<path d="M0 0 C1.9375 1.0625 1.9375 1.0625 3 3 C3.36528977 6.4093712 3.6140629 8.88023824 1.9375 11.9375 C-1.11976176 13.6140629 -3.5906288 13.36528977 -7 13 C-8.9375 11.9375 -8.9375 11.9375 -10 10 C-10.36528977 6.5906288 -10.6140629 4.11976176 -8.9375 1.0625 C-5.88023824 -0.6140629 -3.4093712 -0.36528977 0 0 Z " fill="#FAB774" transform="translate(29,110)"/>
<path d="M0 0 C2.4375 1.375 2.4375 1.375 4 3 C4 3.66 4 4.32 4 5 C1.92111288 6.47686988 -0.13283374 7.81395738 -2.3125 9.125 C-3.20485352 9.68380859 -3.20485352 9.68380859 -4.11523438 10.25390625 C-8.61661516 13 -8.61661516 13 -12 13 C-12.60356653 5.87791495 -12.60356653 5.87791495 -9.9375 2 C-6.26914026 -0.49760663 -4.35802608 -0.6338947 0 0 Z " fill="#49B5C5" transform="translate(41,202)"/>
<path d="M0 0 C0.61875 0.33 1.2375 0.66 1.875 1 C-2.27414051 5.14914051 -10.31887237 4.87732775 -15.984375 5.125 C-18.03167404 5.125 -20.07887621 5.06936013 -22.125 5 C-22.125 4.34 -22.125 3.68 -22.125 3 C-14.78602534 -0.97084619 -8.12792529 -2.60093609 0 0 Z " fill="#D54841" transform="translate(68.125,19)"/>
<path d="M0 0 C2.625 0.375 2.625 0.375 5 1 C5.625 2.875 5.625 2.875 6 5 C5.34 5.66 4.68 6.32 4 7 C1.375 6.625 1.375 6.625 -1 6 C-1.625 4.125 -1.625 4.125 -2 2 C-1.34 1.34 -0.68 0.68 0 0 Z " fill="#E6AF3E" transform="translate(222,214)"/>
<path d="M0 0 C-0.94791643 3.18844618 -1.69765333 4.75485405 -4.3125 6.875 C-7.41167349 8.17232844 -8.84354695 7.9920281 -12 7 C-3.55172414 0 -3.55172414 0 0 0 Z " fill="#45A7B6" transform="translate(47,213)"/>
<path d="M0 0 C6.93 0.495 6.93 0.495 14 1 C14 1.33 14 1.66 14 2 C12.04235617 2.19456705 10.08384679 2.38044247 8.125 2.5625 C7.03445312 2.66691406 5.94390625 2.77132812 4.8203125 2.87890625 C2 3 2 3 0 2 C0 1.34 0 0.68 0 0 Z " fill="#C84641" transform="translate(45,62)"/>
</svg>
