<?xml version="1.0" encoding="UTF-8"?>
<svg version="1.1" xmlns="http://www.w3.org/2000/svg" width="256" height="256">
<path d="M0 0 C12.62967509 10.66325698 20.50908733 25.44238445 21.99609375 41.98828125 C22 44.1875 22 44.1875 21.75 47.25 C22.801875 46.9096875 22.801875 46.9096875 23.875 46.5625 C27.66709886 46.15031534 29.54559197 47.28365871 32.75 49.25 C35.2917714 54.3335428 33.69696174 60.39943472 32.02392578 65.54199219 C31.76853027 66.27063477 31.51313477 66.99927734 31.25 67.75 C30.98300293 68.5224707 30.71600586 69.29494141 30.44091797 70.09082031 C21.74264569 94.44200862 21.74264569 94.44200862 11.75 99.25 C8.73509443 100.25496852 6.70818308 100.35335303 3.5625 100.3125 C2.21091797 100.29896484 2.21091797 100.29896484 0.83203125 100.28515625 C0.14496094 100.27355469 -0.54210937 100.26195312 -1.25 100.25 C-2.20921722 101.99951568 -3.16733817 103.74963244 -4.125 105.5 C-4.65867187 106.47453125 -5.19234375 107.4490625 -5.7421875 108.453125 C-6.23976563 109.37609375 -6.73734375 110.2990625 -7.25 111.25 C-7.6521875 111.95125 -8.054375 112.6525 -8.46875 113.375 C-9.73055837 116.40334008 -8.85339593 119.11234118 -8.25 122.25 C-6.8578125 122.6521875 -6.8578125 122.6521875 -5.4375 123.0625 C-1.1155824 124.67262617 -1.1155824 124.67262617 0.75 127.25 C0.65625 129.703125 0.65625 129.703125 0.25 132.5 C0.04288859 135.46079978 0.04288859 135.46079978 0.75 138.25 C3.21600063 140.57067463 5.75666767 141.97496952 8.73046875 143.5859375 C19.44005293 149.48798518 28.19436064 160.52485591 31.75 172.25 C32.57095687 177.41829666 31.83180483 180.99763839 28.75 185.25 C11.84742613 198.93554733 -12.18714201 202.43695844 -33.25 203.25 C-34.18457031 203.29125 -35.11914062 203.3325 -36.08203125 203.375 C-53.12220733 203.75631863 -74.83172631 203.00666503 -88.25 191.25 C-91.12953771 186.93069343 -91.05607621 183.31676472 -90.25 178.25 C-88.71420181 174.54601613 -86.64022359 171.45752585 -84.25 168.25 C-83.68152344 167.486875 -83.11304687 166.72375 -82.52734375 165.9375 C-75.63355873 157.50688392 -65.90060137 151.18252959 -56.25 146.25 C-55.59 146.25 -54.93 146.25 -54.25 146.25 C-54.33701172 145.03763672 -54.33701172 145.03763672 -54.42578125 143.80078125 C-54.79483541 135.05946976 -54.79483541 135.05946976 -52.0625 131 C-49.0487041 129.12474922 -47.7100388 128.86555124 -44.25 129.25 C-43.92 128.92 -43.59 128.59 -43.25 128.25 C-43.82105469 128.29640625 -44.39210937 128.3428125 -44.98046875 128.390625 C-55.69259211 128.86747628 -65.24570171 125.98712207 -73.4375 119 C-75.60962459 116.90277626 -77.52284541 114.72809137 -79.25 112.25 C-79.41435547 113.51457031 -79.41435547 113.51457031 -79.58203125 114.8046875 C-79.81986328 116.44824219 -79.81986328 116.44824219 -80.0625 118.125 C-80.21332031 119.21554688 -80.36414063 120.30609375 -80.51953125 121.4296875 C-81.25 124.25 -81.25 124.25 -84.25 126.25 C-86.75 126.1875 -86.75 126.1875 -89.25 125.25 C-92.53965333 120.80718016 -94.03953759 115.56863653 -95.75 110.375 C-96.05824707 109.44333008 -96.36649414 108.51166016 -96.68408203 107.55175781 C-105.60078665 79.94271711 -107.1779902 49.03642943 -93.91015625 22.578125 C-90.23179151 16.01616686 -85.50267798 10.60229774 -80.25 5.25 C-79.64671875 4.62222656 -79.0434375 3.99445312 -78.421875 3.34765625 C-56.61276812 -17.56063969 -23.63485939 -17.88876972 0 0 Z " fill="#263042" transform="translate(154.25,32.75)"/>
<path d="M0 0 C5 5 5 5 6.9375 7.125 C9.003339 9.17796876 9.003339 9.17796876 12.0625 10.5 C15.3216838 12.16426407 16.32235054 12.7845052 18 16 C18.34200302 20.12544188 18.01839649 24.25618532 17.79492188 28.3828125 C17.57601508 35.49461386 19.02535893 40.72789483 23.875 46.0625 C27.1404445 47.50313728 28.61043651 47.17331044 32 46 C33.20418695 45.02370824 34.36693805 43.9955087 35.5 42.9375 C39.09066467 39.59589877 42.84047513 37.07576047 47.0625 34.625 C47.92875 34.10667603 47.92875 34.10667603 48.8125 33.57788086 C52.96172058 31.22630304 56.33632456 30.41586915 61 30 C60.80798061 42.09722171 55.12487642 54.644585 49 65 C44.56414369 69.11900944 42.02027439 70.1061252 35.97265625 70.23046875 C34 70 34 70 31 68 C28.84725052 68.30840599 28.84725052 68.30840599 27 69 C26.773125 70.155 26.54625 71.31 26.3125 72.5 C24.76196047 78.66940024 21.69898821 83.37488085 17.125 87.75 C14.72809435 89.75712488 14.72809435 89.75712488 15.0625 92.25 C15.88003585 94.18053285 15.88003585 94.18053285 18 95 C18 96.98 18 98.96 18 101 C17.43152344 101.23074219 16.86304688 101.46148437 16.27734375 101.69921875 C9.53962701 104.54503233 4.2181855 107.7818145 -1 113 C-1.33 109.37 -1.66 105.74 -2 102 C2.455 101.01 2.455 101.01 7 100 C6.67 98.68 6.34 97.36 6 96 C1.57874213 96.53589449 1.57874213 96.53589449 -2.75390625 97.515625 C-10.71382297 99.23219835 -20.82168491 99.23953283 -28.04296875 95.33203125 C-36.82044317 89.35774228 -42.56271185 82.46806492 -45 72 C-46.29609713 63.80179526 -43.29631076 55.78080297 -41 48 C-40.01 48 -39.02 48 -38 48 C-37.67 48.33 -37.34 48.66 -37 49 C-34.04182893 49.25005386 -34.04182893 49.25005386 -31 49 C-28.65026182 47.10244856 -28.65026182 47.10244856 -28.875 43.875 C-28.91625 42.92625 -28.9575 41.9775 -29 41 C-31.31 40.34 -33.62 39.68 -36 39 C-34.69386058 35.08158173 -33.16870152 32.67359191 -30 30 C-29.34 30 -28.68 30 -28 30 C-27.90332031 29.40703125 -27.80664062 28.8140625 -27.70703125 28.203125 C-25.46047712 21.20281269 -15.56653478 16.63351006 -9.734375 12.9921875 C-4.94497009 9.50276393 -2.47027187 5.31108451 0 0 Z " fill="#FA8A81" transform="translate(120,56)"/>
<path d="M0 0 C7.87983993 5.60704933 15.60216961 12.20433922 20 21 C20 21.66 20 22.32 20 23 C16 22 16 22 14.15551758 21.47314453 C11.79674649 20.95538506 9.67572783 20.87053133 7.26171875 20.8671875 C5.90723633 20.86525391 5.90723633 20.86525391 4.52539062 20.86328125 C3.58888672 20.86714844 2.65238281 20.87101562 1.6875 20.875 C0.30014648 20.86919922 0.30014648 20.86919922 -1.11523438 20.86328125 C-6.18509574 20.87048788 -11.00373221 21.13168312 -16 22 C-19 18.25 -19 18.25 -19 16 C-22.26545761 14.11608215 -25.28111761 13.50712033 -29 13 C-29.03867188 13.85271484 -29.03867188 13.85271484 -29.078125 14.72265625 C-29.16320312 15.88087891 -29.16320312 15.88087891 -29.25 17.0625 C-29.29640625 17.81660156 -29.3428125 18.57070313 -29.390625 19.34765625 C-31.16020867 27.04988261 -35.42921422 30.54863332 -41.8125 34.5625 C-43.19673351 35.45542809 -44.57826655 36.35255676 -45.95703125 37.25390625 C-46.63362793 37.69460449 -47.31022461 38.13530273 -48.00732422 38.58935547 C-50.0465738 40.03297028 -51.84166542 41.60724636 -53.68359375 43.29296875 C-56.51639153 45.79197451 -58.36968044 46.72559547 -62.25 46.75 C-65.92871722 46.81854753 -66.78901242 46.85934162 -70 49 C-70 49.99 -70 50.98 -70 52 C-67.36 52 -64.72 52 -62 52 C-66.11378556 60.50765864 -66.11378556 60.50765864 -69.8125 62.5625 C-70.8953125 62.7790625 -70.8953125 62.7790625 -72 63 C-72 63.99 -72 64.98 -72 66 C-71.34 66.33 -70.68 66.66 -70 67 C-70.268125 68.11375 -70.53625 69.2275 -70.8125 70.375 C-73.70345134 83.43553902 -75.46241158 96.7224718 -77 110 C-78.75648286 107.36527572 -79.44403845 105.8915904 -80.21875 102.9375 C-80.53392578 101.74060547 -80.53392578 101.74060547 -80.85546875 100.51953125 C-81.06816406 99.68808594 -81.28085938 98.85664063 -81.5 98 C-81.71269531 97.19949219 -81.92539063 96.39898437 -82.14453125 95.57421875 C-88.47698975 71.2156207 -89.03219764 45.75769688 -76.8984375 23.1796875 C-69.77926924 11.2558131 -59.05780869 1.19563335 -46 -4 C-45.37738281 -4.29519531 -44.75476563 -4.59039063 -44.11328125 -4.89453125 C-30.80960356 -10.44406537 -11.92121292 -7.67530147 0 0 Z " fill="#FAE3D1" transform="translate(144,34)"/>
<path d="M0 0 C1.21236328 0.01353516 1.21236328 0.01353516 2.44921875 0.02734375 C3.37154297 0.04474609 3.37154297 0.04474609 4.3125 0.0625 C4.33828125 0.88234375 4.3640625 1.7021875 4.390625 2.546875 C4.44734375 3.62453125 4.5040625 4.7021875 4.5625 5.8125 C4.60890625 6.87984375 4.6553125 7.9471875 4.703125 9.046875 C5.44258044 12.70623142 6.41904778 13.76359276 9.3125 16.0625 C11.03645464 17.18681824 12.78874355 18.26851763 14.5625 19.3125 C24.561675 25.6018747 32.04658826 33.86011328 36.0625 45.17578125 C36.3125 46.9375 36.3125 46.9375 35.3125 50.0625 C24.17348887 61.76438669 -1.22447508 66.44659524 -16.6875 67.0625 C-23.35351171 67.1698589 -30.02120891 67.12557262 -36.6875 67.0625 C-36.25403787 54.01528981 -33.57214677 34.94714677 -23.6875 25.0625 C-23.44168645 23.37734443 -23.21609058 21.68922422 -23 20 C-21.79063912 13.19403474 -19.14833856 8.68593339 -13.62109375 4.49609375 C-9.09538781 1.57063743 -5.46756214 -0.07924003 0 0 Z " fill="#FADADB" transform="translate(143.6875,161.9375)"/>
<path d="M0 0 C4.82992122 0.32634603 9.08710313 2.13394374 13.5 4 C14.19391846 4.29092529 14.88783691 4.58185059 15.6027832 4.8815918 C19.89084829 6.82541049 22.61035499 8.71516566 25.1875 12.8125 C25.58622835 16.06878152 25.68893097 17.96798469 24 20.8125 C23.731875 21.4725 23.46375 22.1325 23.1875 22.8125 C23.64125 23.72 24.095 24.6275 24.5625 25.5625 C26.71919152 29.87588305 26.79591549 32.02122805 26.1875 36.8125 C22.77065877 41.66221014 17.76781002 44.11371536 12.1875 45.8125 C8.9375 45.9375 8.9375 45.9375 6.1875 44.8125 C3.47005418 41.97153391 1.36437617 39.07781425 -0.8125 35.8125 C-3.14260909 35.13465008 -5.47609824 34.46833207 -7.8125 33.8125 C-10.31324172 32.14533886 -10.71761955 31.18970765 -11.453125 28.265625 C-11.90505817 23.92313673 -11.39492983 20.09952478 -10.6875 15.8125 C-10.52894531 14.64074219 -10.52894531 14.64074219 -10.3671875 13.4453125 C-9.28516083 6.7502725 -7.19976549 1.53437625 0 0 Z " fill="#253042" transform="translate(199.8125,205.1875)"/>
<path d="M0 0 C3.67383511 1.5822189 5.16863545 3.41156668 7.265625 6.85546875 C8.87521998 11.55582856 8.38591143 15.13169929 6.390625 19.62109375 C5.68547377 20.89789913 4.971519 22.16987207 4.25 23.4375 C-1.72730352 34.64642364 -4.46119011 46.28408666 -5 59 C-14.54878444 59.39786602 -27.07711195 57.76941532 -34.78515625 51.5625 C-36 50 -36 50 -36.625 46.9375 C-35.31055026 38.65646664 -28.44888803 31.16145122 -22 26 C-18.77340019 23.86374055 -15.51714789 21.85944731 -12.18359375 19.89453125 C-5.82806608 16.29069378 -5.82806608 16.29069378 -1 11 C-0.54227937 8.26127045 -0.54227937 8.26127045 -0.375 5.3125 C-0.30023438 4.31863281 -0.22546875 3.32476562 -0.1484375 2.30078125 C-0.09945312 1.54152344 -0.05046875 0.78226563 0 0 Z " fill="#F9D9DA" transform="translate(107,169)"/>
<path d="M0 0 C4.39541153 2.89910122 8.00332435 6.00003658 9.640625 11.1484375 C10.475975 16.46925383 9.76669942 20.25163846 6.9375 24.9375 C3.67765686 28.84050138 0.52010105 31.1933756 -4.5625 32 C-10.41638404 32.2688008 -14.43185133 30.31449221 -18.875 26.5625 C-21.93153044 22.89466348 -22.9022193 20.35331289 -23.4375 15.625 C-22.97085238 11.0362984 -21.73464573 7.69648176 -19.0625 3.9375 C-13.07999315 -0.82408709 -7.43030446 -2.57786073 0 0 Z " fill="#1F2D3F" transform="translate(240.0625,105.0625)"/>
<path d="M0 0 C4.35442364 2.26655744 6.82458657 4.97339189 8.99609375 9.31640625 C10.45037806 15.32744806 10.22023832 19.92747889 6.99609375 25.31640625 C4.0857423 28.443486 0.95190304 31.12146447 -3.39453125 31.5546875 C-9.48507303 31.71277533 -13.27792555 31.58131566 -18.00390625 27.31640625 C-21.32055447 23.64120147 -22.82821416 21.10846559 -23.31640625 16.12890625 C-22.82865928 10.1783932 -20.76438419 5.99100722 -16.44140625 1.87890625 C-11.49479467 -1.29199861 -5.58834438 -1.90635529 0 0 Z " fill="#1F2C3F" transform="translate(240.00390625,139.68359375)"/>
<path d="M0 0 C3.99484586 3.00110311 5.85259852 6.25319699 7.1953125 10.9921875 C7.44571974 16.97066032 6.22403441 21.4333706 2.1953125 25.9921875 C-2.39034107 29.40894899 -5.86508981 30.66797614 -11.59765625 30.375 C-16.75941724 29.4796857 -19.95400394 27.08912156 -23.1796875 22.9296875 C-25.68463686 18.40150981 -26.15375635 15.14095303 -25.8046875 9.9921875 C-23.60013044 3.86841788 -19.72379386 0.48417519 -13.9921875 -2.4453125 C-8.95968018 -3.33340203 -4.48062219 -2.50216564 0 0 Z " fill="#202C40" transform="translate(242.8046875,176.0078125)"/>
<path d="M0 0 C4.88351295 2.30856976 7.51973231 5.22318815 10 10 C11.29047208 14.3398753 11.20311293 17.33424094 9.875 21.6875 C7.16180519 26.48081083 4.10399126 29.8544333 -1 32 C-5.53599833 32.72106443 -9.69885845 32.50274563 -13.8125 30.375 C-18.06837496 27.20395591 -20.32775456 24.01673632 -22 19 C-22.39680449 13.74234055 -21.89498146 10.43897158 -19 6 C-13.00383578 0.06779487 -8.26014342 -0.82951935 0 0 Z " fill="#232C3F" transform="translate(239,70)"/>
<path d="M0 0 C4.02286118 2.37207526 6.9787069 4.60790568 8.73828125 9.05859375 C10.12289452 15.09155156 9.97067371 19.65588064 6.73828125 25.05859375 C3.8279298 28.1856735 0.69409054 30.86365197 -3.65234375 31.296875 C-9.74288553 31.45496283 -13.53573805 31.32350316 -18.26171875 27.05859375 C-21.57836697 23.38338897 -23.08602666 20.85065309 -23.57421875 15.87109375 C-23.08647178 9.9205807 -21.02219669 5.73319472 -16.69921875 1.62109375 C-11.63491004 -1.62525799 -5.60506358 -2.33302301 0 0 Z " fill="#232E3F" transform="translate(240.26171875,35.94140625)"/>
<path d="M0 0 C10.31564293 3.63433683 20.11600983 13.23201965 25 23 C25 23.66 25 24.32 25 25 C21 24 21 24 19.15551758 23.47314453 C16.79674649 22.95538506 14.67572783 22.87053133 12.26171875 22.8671875 C10.90723633 22.86525391 10.90723633 22.86525391 9.52539062 22.86328125 C8.58888672 22.86714844 7.65238281 22.87101562 6.6875 22.875 C5.30014648 22.86919922 5.30014648 22.86919922 3.88476562 22.86328125 C-1.18509574 22.87048788 -6.00373221 23.13168312 -11 24 C-14 20.25 -14 20.25 -14 18 C-16.97 17.01 -19.94 16.02 -23 15 C-22.01 14.67 -21.02 14.34 -20 14 C-19.95875 13.278125 -19.9175 12.55625 -19.875 11.8125 C-18.64565495 7.86103378 -16.54585841 5.91846817 -13 4 C-9.85726143 3.01991916 -6.73191669 2.25939689 -3.51171875 1.578125 C-1.07405252 1.25087935 -1.07405252 1.25087935 0 0 Z " fill="#F8C8BC" transform="translate(139,32)"/>
<path d="M0 0 C3.78525092 3.78525092 4.25281884 6.41203388 4.5625 11.625 C4.63726562 12.80449219 4.71203125 13.98398438 4.7890625 15.19921875 C4.83804688 16.10285156 4.88703125 17.00648437 4.9375 17.9375 C-0.140625 21.2578125 -0.140625 21.2578125 -2.0625 21.9375 C-4.93680108 20.89127691 -7.33928974 19.13141643 -9.875 17.4375 C-12.83269334 15.50617039 -14.25773754 14.90549385 -17.875 14.3125 C-18.926875 13.85875 -19.97875 13.405 -21.0625 12.9375 C-22.12290401 10.20371583 -22.71151825 7.50959155 -23.30859375 4.640625 C-24.37108539 0.83106947 -26.08831097 -0.57061189 -29.0625 -3.0625 C-29.0625 -3.7225 -29.0625 -4.3825 -29.0625 -5.0625 C-18.75857579 -7.81021312 -8.81010318 -5.9333348 0 0 Z " fill="#F4C5B9" transform="translate(165.0625,65.0625)"/>
<path d="M0 0 C0.72509766 -0.03738281 1.45019531 -0.07476562 2.19726562 -0.11328125 C5.93080294 -0.17476677 7.79074187 0.0358156 10.6640625 2.4921875 C13.37961076 7.63084035 12.96104621 12.72883562 12.1875 18.375 C10.5625 21.6875 10.5625 21.6875 7.1875 23.375 C2.44467292 23.97975245 -2.09165731 24.19087865 -6.8125 23.375 C-9.14703959 21.49429183 -10.47892466 20.04215069 -11.8125 17.375 C-12.75601771 6.10722125 -12.75601771 6.10722125 -8.8125 1.375 C-6.7631744 -0.6743256 -2.79933129 0.05388039 0 0 Z " fill="#202B3E" transform="translate(20.8125,154.625)"/>
<path d="M0 0 C0.67289063 -0.03738281 1.34578125 -0.07476562 2.0390625 -0.11328125 C5.64993356 -0.17725338 7.30920899 0.10114604 10.06640625 2.4921875 C12.83619548 7.61525631 12.39949653 12.72189918 11.625 18.375 C10 21.6875 10 21.6875 6.625 23.375 C-4.9812721 24.73157726 -4.9812721 24.73157726 -9.74609375 22.03125 C-13.26279162 18.45551884 -12.63886238 13.74665946 -12.6015625 9.046875 C-12.32596396 5.79671296 -11.51285316 3.84175364 -9.375 1.375 C-6.37199703 -0.12650148 -3.29275628 0.06859909 0 0 Z " fill="#212C3F" transform="translate(21.375,127.625)"/>
<path d="M0 0 C3.375 1.6875 3.375 1.6875 5 5 C5.77408417 10.65009097 6.21944112 15.76182378 3.43359375 20.875 C0.07497761 23.80772421 -2.09714153 23.60400453 -6.5 23.5 C-7.8096875 23.4896875 -9.119375 23.479375 -10.46875 23.46875 C-14.05431468 22.99279009 -15.52400003 22.57309801 -18 20 C-19.8427698 14.47169059 -19.98016758 8.22765359 -17.625 2.875 C-13.41984464 -1.97710234 -5.86097208 -0.54883091 0 0 Z " fill="#222C3F" transform="translate(28,101)"/>
<path d="M0 0 C3.375 1.6875 3.375 1.6875 5 5 C5.77312774 10.64310992 6.20042739 15.74613632 3.46875 20.875 C0.09603921 23.77809283 -2.82219292 23.66793295 -7.0625 23.5 C-8.14241211 23.50386719 -8.14241211 23.50386719 -9.24414062 23.5078125 C-12.23281358 23.45231254 -14.43771383 23.39076049 -16.93359375 21.65625 C-19.9432118 16.98197142 -19.45271335 11.33889537 -19 6 C-15.4068772 -2.16618818 -7.91940016 -0.74158545 0 0 Z " fill="#232D3F" transform="translate(28,74)"/>
<path d="M0 0 C5.21745066 0.52506828 9.22651111 1.7798559 13.9375 4.0625 C15.65259766 4.88427734 15.65259766 4.88427734 17.40234375 5.72265625 C18.25957031 6.14417969 19.11679688 6.56570312 20 7 C19 10 19 10 17 11 C17.45040137 14.06272934 18.11928728 16.22903158 19.5625 19 C21.01131166 22.02360695 21.29019723 23.71109809 21 27 C14.375 31 14.375 31 11 31 C9.17578125 28.375 9.17578125 28.375 7.3125 25 C6.37857422 23.329375 6.37857422 23.329375 5.42578125 21.625 C4.95527344 20.75875 4.48476562 19.8925 4 19 C2.02 19.33 0.04 19.66 -2 20 C-1.85919445 17.22882696 -1.71256882 14.45817359 -1.5625 11.6875 C-1.52318359 10.90181641 -1.48386719 10.11613281 -1.44335938 9.30664062 C-1.40146484 8.54931641 -1.35957031 7.79199219 -1.31640625 7.01171875 C-1.27974854 6.31522217 -1.24309082 5.61872559 -1.20532227 4.90112305 C-1 3 -1 3 0 0 Z " fill="#F7C8BC" transform="translate(198,213)"/>
<path d="M0 0 C3.49406769 1.66762322 4.82670681 2.74006022 7 6 C7.50256748 10.62362084 6.86230692 13.3198911 4 17 C0.79471299 19.32106991 -2.12159743 19.55405751 -6 19 C-9.56719805 15.98769943 -11.79134449 13.87789961 -12.3125 9.1875 C-11.92835642 5.2692355 -10.70743683 3.78706733 -8 1 C-5.17998673 -0.41000664 -3.12992745 -0.24548451 0 0 Z " fill="#1FA674" transform="translate(236,111)"/>
<path d="M0 0 C3.03978021 0.68164768 4.80055419 2.23591662 6.93359375 4.43359375 C8.36021594 7.28683812 8.24393243 9.26813924 7.93359375 12.43359375 C6.13365601 15.13350037 4.84982075 16.97548025 1.93359375 18.43359375 C-1.0777643 18.77915943 -3.16001796 19.01153712 -6.06640625 18.43359375 C-9.62993509 15.3897462 -10.8809904 13.49046409 -11.69140625 8.87109375 C-11.06640625 5.43359375 -11.06640625 5.43359375 -9.06640625 2.49609375 C-5.70670109 0.18629645 -3.9771532 -0.24810218 0 0 Z " fill="#13606E" transform="translate(235.06640625,145.56640625)"/>
<path d="M0 0 C3.24807785 0.69554798 4.80411173 1.89740194 6.93359375 4.4140625 C7.99609375 7.7890625 7.99609375 7.7890625 7.93359375 11.4140625 C4.99688489 16.88241693 4.99688489 16.88241693 1.93359375 18.4140625 C-1.0777643 18.75962818 -3.16001796 18.99200587 -6.06640625 18.4140625 C-9.62993509 15.37021495 -10.8809904 13.47093284 -11.69140625 8.8515625 C-11.06640625 5.4140625 -11.06640625 5.4140625 -9.06640625 2.4765625 C-5.71005757 0.16907278 -3.97603943 -0.28561342 0 0 Z " fill="#F65078" transform="translate(235.06640625,76.5859375)"/>
<path d="M0 0 C3.99104912 0.30178065 6.19416343 1.73413808 9 4.625 C10.42662219 7.47824437 10.31033868 9.45954549 10 12.625 C8.20006226 15.32490662 6.916227 17.1668865 4 18.625 C-3.24087591 19.20894161 -3.24087591 19.20894161 -6.4375 16.75 C-9.04432356 13.20471996 -9.50992194 11.04432351 -9 6.625 C-6.59221978 2.56187088 -4.78704154 0.25385826 0 0 Z " fill="#F6B473" transform="translate(233,41.375)"/>
<path d="M0 0 C2.44606039 0.61813801 3.54840808 1.3006503 5.2890625 3.109375 C7.1640625 6.546875 7.1640625 6.546875 7.1640625 10.171875 C5.57900686 15.5214378 5.57900686 15.5214378 3.1640625 17.546875 C-1.26534946 18.61850693 -3.53394898 19.11295696 -7.7109375 17.296875 C-10.76912052 14.77837134 -11.76207938 13.11663768 -12.2734375 9.171875 C-11.8359375 5.546875 -11.8359375 5.546875 -9.8984375 2.609375 C-6.33765472 0.2112968 -4.22497843 -0.25434653 0 0 Z " fill="#294E84" transform="translate(235.8359375,180.453125)"/>
<path d="M0 0 C0.73734375 0.00773437 1.4746875 0.01546875 2.234375 0.0234375 C3.34039062 0.01183594 3.34039062 0.01183594 4.46875 0 C9.9810554 0.0201179 9.9810554 0.0201179 12.234375 2.2734375 C12.79443395 9.33018032 12.79443395 9.33018032 11.046875 12.2734375 C8.56911658 13.64047663 7.02281581 13.69170362 4.234375 13.2734375 C2.421875 12.0234375 2.421875 12.0234375 1.234375 10.2734375 C1.234375 8.9534375 1.234375 7.6334375 1.234375 6.2734375 C-1.405625 6.2734375 -4.045625 6.2734375 -6.765625 6.2734375 C-7.390625 4.3984375 -7.390625 4.3984375 -7.765625 2.2734375 C-5.20613501 -0.28605249 -3.49355305 0.01275019 0 0 Z " fill="#2B3142" transform="translate(116.765625,92.7265625)"/>
<path d="M0 0 C0.33 1.65 0.66 3.3 1 5 C-4.51216601 9.61830125 -8.27067702 10.32880857 -15.32421875 10.30078125 C-18.84648728 9.90484741 -20.6439881 8.59973727 -23 6 C-22.67 4.68 -22.34 3.36 -22 2 C-20.125 1.375 -20.125 1.375 -18 1 C-17.34 1.66 -16.68 2.32 -16 3 C-10.54815847 3.57503009 -10.54815847 3.57503009 -5.75 1.5 C-4 0 -4 0 0 0 Z " fill="#343445" transform="translate(114,122)"/>
<path d="M0 0 C0.7734375 0.61875 0.7734375 0.61875 1.5625 1.25 C1.5625 3.23 1.5625 5.21 1.5625 7.25 C0.99402344 7.48074219 0.42554688 7.71148437 -0.16015625 7.94921875 C-6.89787299 10.79503233 -12.2193145 14.0318145 -17.4375 19.25 C-17.7675 15.62 -18.0975 11.99 -18.4375 8.25 C-15.4675 7.59 -12.4975 6.93 -9.4375 6.25 C-9.4375 5.26 -9.4375 4.27 -9.4375 3.25 C-3.0375 -0.93461538 -3.0375 -0.93461538 0 0 Z " fill="#F66E6F" transform="translate(136.4375,149.75)"/>
<path d="M0 0 C-0.33 1.65 -0.66 3.3 -1 5 C-6.94 5 -12.88 5 -19 5 C-19.33 3.68 -19.66 2.36 -20 1 C-15.11371795 -3.88628205 -5.76224725 -2.9740631 0 0 Z " fill="#373546" transform="translate(129,81)"/>
<path d="M0 0 C6.14689273 0.36881356 8.69027374 1.90050429 13 6 C8.56923077 11.78461538 8.56923077 11.78461538 5.6875 12.875 C4.8521875 12.936875 4.8521875 12.936875 4 13 C1.78631706 10.78631706 0.13447079 9.06983375 -0.265625 5.88671875 C-0.25166986 3.92253213 -0.13286356 1.9597375 0 0 Z " fill="#F4C5B9" transform="translate(143,84)"/>
<path d="M0 0 C3.46679688 0.04882812 3.46679688 0.04882812 6.93359375 0.09765625 C6.93359375 3.39765625 6.93359375 6.69765625 6.93359375 10.09765625 C3.63359375 10.09765625 0.33359375 10.09765625 -3.06640625 10.09765625 C-3.1640625 3.1640625 -3.1640625 3.1640625 -3.06640625 1.09765625 C-2.06640625 0.09765625 -2.06640625 0.09765625 0 0 Z " fill="#632E30" transform="translate(19.06640625,160.90234375)"/>
<path d="M0 0 C3.3 0 6.6 0 10 0 C10 2.97 10 5.94 10 9 C6.7 9 3.4 9 0 9 C0 6.03 0 3.06 0 0 Z " fill="#A64446" transform="translate(16,135)"/>
<path d="M0 0 C3.3 0 6.6 0 10 0 C10 2.97 10 5.94 10 9 C6.7 9 3.4 9 0 9 C0 6.03 0 3.06 0 0 Z " fill="#DA736D" transform="translate(16,108)"/>
<path d="M0 0 C3.3 0 6.6 0 10 0 C10 2.97 10 5.94 10 9 C6.7 9 3.4 9 0 9 C0 6.03 0 3.06 0 0 Z " fill="#ED957B" transform="translate(16,81)"/>
<path d="M0 0 C0.33 1.65 0.66 3.3 1 5 C0.21625 5.433125 -0.5675 5.86625 -1.375 6.3125 C-4.21698375 7.89220247 -4.21698375 7.89220247 -6 11 C-7.32 10.67 -8.64 10.34 -10 10 C-9.51470588 3.56985294 -9.51470588 3.56985294 -7.25 1.0625 C-4.64597372 -0.16717908 -2.84687774 -0.23723981 0 0 Z " fill="#2E3243" transform="translate(162,106)"/>
<path d="M0 0 C0.66 0.33 1.32 0.66 2 1 C0.73861805 2.34227818 -0.53444559 3.67358677 -1.8125 5 C-2.52019531 5.7425 -3.22789063 6.485 -3.95703125 7.25 C-6 9 -6 9 -9 9 C-9 6.69 -9 4.38 -9 2 C-8.67 2 -8.34 2 -8 2 C-7.67 3.65 -7.34 5.3 -7 7 C-6.21625 6.21625 -5.4325 5.4325 -4.625 4.625 C-3.08333333 3.08333333 -1.54166667 1.54166667 0 0 Z " fill="#583D4B" transform="translate(127,161)"/>
</svg>
