<?xml version="1.0" encoding="UTF-8"?>
<svg version="1.1" xmlns="http://www.w3.org/2000/svg" width="256" height="256">
<path d="M0 0 C10.62690837 5.37257758 20.59531327 11.98643906 30.10546875 19.1328125 C31.04894165 19.83398193 31.04894165 19.83398193 32.01147461 20.54931641 C33.20907047 21.44516959 34.39678375 22.35444009 35.57250977 23.27880859 C38.76000966 25.72084417 38.76000966 25.72084417 42.62695312 25.97827148 C45.2084483 25.24343754 47.43853614 24.32240178 49.84375 23.13671875 C50.69839844 22.729375 51.55304688 22.32203125 52.43359375 21.90234375 C54.20899085 21.04453842 55.97989064 20.17736064 57.74609375 19.30078125 C59.03193359 18.69363281 59.03193359 18.69363281 60.34375 18.07421875 C61.11315918 17.6982959 61.88256836 17.32237305 62.67529297 16.93505859 C68.74258222 15.27802094 74.09325279 17.79415168 79.48828125 20.44140625 C80.16018997 20.76107361 80.83209869 21.08074097 81.52436829 21.41009521 C83.65864072 22.42730327 85.78653119 23.45705886 87.9140625 24.48828125 C92.7132652 26.79530325 97.52172943 29.08071039 102.34405518 31.33898926 C104.12714816 32.19079006 105.88842368 33.08782981 107.64794922 33.98730469 C112.7997629 36.66668821 112.7997629 36.66668821 118.39526367 36.79589844 C120.47816924 35.71107908 122.16038501 34.47533147 123.9765625 32.98828125 C125.32428258 32.0170331 126.67866202 31.05496846 128.0390625 30.1015625 C129.06386719 29.37187256 129.06386719 29.37187256 130.109375 28.62744141 C133.54255452 26.37481324 137.20031253 24.76441055 140.9765625 23.17578125 C141.64397461 22.88993164 142.31138672 22.60408203 142.99902344 22.30957031 C150.17432302 19.31033198 158.65809382 17.18729947 166.2734375 19.9921875 C169.32098598 21.91576389 170.89368133 23.96235554 172.2265625 27.23828125 C175.48299181 47.15391736 159.96563601 67.81313969 149.07397461 83.02099609 C145.44558113 88.01926262 145.44558113 88.01926262 144.2265625 89.23828125 C144.08672909 90.68661312 144.01442354 92.14155249 143.97021484 93.59594727 C143.9267543 94.98989464 143.9267543 94.98989464 143.88241577 96.41200256 C143.78437871 100.73108947 143.71060114 105.05000994 143.65673828 109.36987305 C143.62038038 111.63065882 143.56612245 113.89123813 143.49267578 116.15112305 C143.06756198 129.43837828 143.23463966 139.7740655 150.98681641 150.93066406 C156.54606937 159.14046994 159.92465037 169.29052909 159.2265625 179.23828125 C157.77485551 182.83298428 156.29654183 185.80788095 153.2265625 188.23828125 C142.7204596 191.74031555 132.50909616 187.87708003 123.0390625 183.21484375 C101.18123205 172.10228989 101.18123205 172.10228989 99.2265625 166.23828125 C101.2265625 163.23828125 101.2265625 163.23828125 103.38671875 162.76171875 C107.4920445 163.45064549 110.26179663 165.54914783 113.6640625 167.86328125 C122.63903684 173.73805581 133.35881635 180.39533007 144.3515625 180.36328125 C145.24101562 180.36585938 146.13046875 180.3684375 147.046875 180.37109375 C149.20447338 180.4813011 149.20447338 180.4813011 150.2265625 179.23828125 C151.67786986 166.90216868 144.61483047 155.29013806 138.2265625 145.23828125 C131.81837715 147.26960757 125.62362168 149.6409864 119.43359375 152.2578125 C118.52510178 152.63886642 117.6166098 153.01992035 116.68058777 153.41252136 C113.79877645 154.62220088 110.91892226 155.83646418 108.0390625 157.05078125 C106.12707514 157.85380621 104.21496668 158.65654288 102.30273438 159.45898438 C100.42967165 160.24605602 98.55662456 161.03316491 96.68359375 161.8203125 C95.7723172 162.2025296 94.86104065 162.5847467 93.92214966 162.97854614 C89.93898568 164.65373564 85.96561937 166.34172758 82.02490234 168.11474609 C72.31503337 172.46238889 72.31503337 172.46238889 67.80859375 172.75390625 C62.86955648 173.42178043 60.53256496 175.72713284 56.9140625 178.98828125 C39.50466641 193.87064068 13.84197637 214.43305932 -9.8984375 215.55078125 C-14.90465543 215.147054 -18.18109586 213.99534789 -21.5859375 210.23828125 C-24.69491001 205.00211703 -24.47220127 199.30928127 -23.16015625 193.54296875 C-19.3513002 181.2271082 -12.73769018 165.68563737 -3.7734375 156.23828125 C-1.03515625 155.92578125 -1.03515625 155.92578125 1.2265625 156.23828125 C2.36743164 157.953125 2.36743164 157.953125 3.2265625 160.23828125 C2.43139648 162.4296875 2.43139648 162.4296875 0.97265625 164.80078125 C0.44969971 165.67492676 -0.07325684 166.54907227 -0.61206055 167.44970703 C-1.18093994 168.36993652 -1.74981934 169.29016602 -2.3359375 170.23828125 C-11.37044178 184.61687221 -11.37044178 184.61687221 -14.8984375 200.86328125 C-14.90101562 201.65992188 -14.90359375 202.4565625 -14.90625 203.27734375 C-14.98913824 205.24181661 -14.98913824 205.24181661 -13.7734375 206.23828125 C5.37620299 208.1532453 25.68639043 192.28931587 40.2265625 181.23828125 C40.82968262 180.78324219 41.43280273 180.32820312 42.05419922 179.859375 C48.89359149 174.8437746 48.89359149 174.8437746 55.2265625 169.23828125 C49.41426158 166.80230862 43.60166584 164.36704118 37.78881836 161.93237305 C35.81933994 161.10736243 33.84993646 160.28217289 31.88061523 159.45678711 C29.96756248 158.65501086 28.05434481 157.85362797 26.14096069 157.05264282 C24.24345578 156.25761545 22.34666382 155.4608843 20.45059204 154.66244507 C16.04046208 152.80984797 11.62447901 150.98937364 7.16357422 149.26220703 C6.3836058 148.95589859 5.60363739 148.64959015 4.80003357 148.33399963 C3.3630088 147.77230704 1.92140592 147.22211871 0.47450256 146.68638611 C-3.85946855 144.9805061 -6.24757343 143.1537743 -8.7734375 139.23828125 C-9.9789341 135.62179144 -9.92887298 132.30674944 -9.93457031 128.54150391 C-9.93953522 127.75905807 -9.94450012 126.97661224 -9.94961548 126.17045593 C-9.96422478 123.58107627 -9.97103681 120.99175786 -9.9765625 118.40234375 C-9.98231468 116.60256956 -9.98807241 114.80279539 -9.99383545 113.00302124 C-10.00434173 109.22857376 -10.01018693 105.45414755 -10.01367188 101.6796875 C-10.01915781 96.84525753 -10.04318949 92.01110903 -10.07164383 87.17676735 C-10.09027447 83.45870137 -10.09547602 79.74070317 -10.09700775 76.02259445 C-10.10003352 74.2404158 -10.1080595 72.45823832 -10.12119293 70.6761055 C-10.13826353 68.18180204 -10.13637095 65.68818596 -10.12988281 63.19384766 C-10.1390976 62.45912735 -10.14831238 61.72440704 -10.1578064 60.96742249 C-10.12176681 56.54051638 -9.44659091 53.78501404 -6.7734375 50.23828125 C-0.99694841 45.13630349 7.11660375 42.3989396 14.11035156 39.30688477 C16.1212299 38.4170785 18.12719816 37.51683411 20.1328125 36.61523438 C29.94453421 32.23828125 29.94453421 32.23828125 32.2265625 32.23828125 C28.18965953 27.86563585 23.75699119 24.67804154 18.7890625 21.42578125 C17.99209961 20.90169678 17.19513672 20.3776123 16.37402344 19.83764648 C-3.62196834 6.05895574 -3.62196834 6.05895574 -26.7734375 2.23828125 C-28.34005981 3.80490356 -28.05700184 5.30789246 -28.1484375 7.48828125 C-27.93843358 20.96671451 -19.05949708 33.99020552 -11.9609375 45.06640625 C-10.7734375 47.23828125 -10.7734375 47.23828125 -11.3984375 49.48828125 C-12.7734375 51.23828125 -12.7734375 51.23828125 -15.7734375 52.23828125 C-19.94112798 48.43746494 -22.59494976 44.55506471 -25.2734375 39.61328125 C-25.66217041 38.9076001 -26.05090332 38.20191895 -26.45141602 37.47485352 C-32.63173836 26.13200769 -38.88311077 14.56348253 -36.7734375 1.23828125 C-28.99358249 -13.1679487 -11.5225634 -5.54489553 0 0 Z M125.2265625 40.23828125 C124.8965625 40.89828125 124.5665625 41.55828125 124.2265625 42.23828125 C125.35835937 42.78097656 126.49015625 43.32367188 127.65625 43.8828125 C129.1382286 44.60504258 130.61998813 45.3277223 132.1015625 46.05078125 C132.84792969 46.40720703 133.59429687 46.76363281 134.36328125 47.13085938 C135.43642578 47.65776367 135.43642578 47.65776367 136.53125 48.1953125 C137.5210083 48.6744812 137.5210083 48.6744812 138.53076172 49.16333008 C140.2265625 50.23828125 140.2265625 50.23828125 142.2265625 53.23828125 C142.54541016 55.69018555 142.54541016 55.69018555 142.640625 58.5625 C142.67929688 59.59052734 142.71796875 60.61855469 142.7578125 61.67773438 C142.78875 62.74958984 142.8196875 63.82144531 142.8515625 64.92578125 C142.89023438 66.00923828 142.92890625 67.09269531 142.96875 68.20898438 C143.06306759 70.88524592 143.14866255 73.56149968 143.2265625 76.23828125 C146.64027044 72.9423643 149.13417619 69.49692526 151.5390625 65.42578125 C151.92642578 64.77504639 152.31378906 64.12431152 152.71289062 63.45385742 C161.251629 49.09896212 161.251629 49.09896212 164.3515625 33.05078125 C164.35414063 32.17035156 164.35671875 31.28992187 164.359375 30.3828125 C164.46521283 28.25624934 164.46521283 28.25624934 163.2265625 27.23828125 C149.7984993 25.22981026 136.35812577 33.49683986 125.2265625 40.23828125 Z " fill="#232C3F" transform="translate(60.7734375,29.76171875)"/>
<path d="M0 0 C2.15249431 1.56597573 4.0857508 3.11353143 6.0625 4.875 C6.63049316 5.36895264 7.19848633 5.86290527 7.78369141 6.37182617 C9.53387502 7.9022046 11.26937137 9.44756091 13 11 C13.5048291 11.4522998 14.0096582 11.90459961 14.52978516 12.37060547 C17.49020281 15.03567513 20.41595777 17.73663374 23.33007812 20.45214844 C25.21576759 22.19999511 27.11545294 23.93197567 29.015625 25.6640625 C30.38565145 26.92161926 31.75544589 28.17942884 33.125 29.4375 C33.77710449 30.02893799 34.42920898 30.62037598 35.10107422 31.22973633 C35.70967285 31.79200928 36.31827148 32.35428223 36.9453125 32.93359375 C37.48687988 33.42915771 38.02844727 33.92472168 38.58642578 34.43530273 C40.15011895 36.16616793 41.05097056 37.87885907 42 40 C41.01 40.66 40.02 41.32 39 42 C39 43.32 39 44.64 39 46 C40.258125 45.608125 41.51625 45.21625 42.8125 44.8125 C46.55476171 44.37639391 47.73626991 44.80211047 50.80078125 47.1015625 C53.71863284 49.90536455 56.35887375 52.93677595 59 56 C59.65097656 56.71414062 60.30195313 57.42828125 60.97265625 58.1640625 C65.55629677 63.23843446 69.7663105 68.6336611 74 74 C72.71171248 76.80638179 71.33866032 78.94014468 69.2265625 81.1875 C68.3749353 82.09737671 68.3749353 82.09737671 67.50610352 83.02563477 C66.57495728 84.00294556 66.57495728 84.00294556 65.625 85 C64.97523193 85.68698975 64.32546387 86.37397949 63.65600586 87.08178711 C58.03670588 92.98602414 52.31462451 98.78790208 46.5625 104.5625 C45.73508301 105.39458984 44.90766602 106.22667969 44.05517578 107.08398438 C30.10265729 121 30.10265729 121 27 121 C27 120.34 27 119.68 27 119 C25.68 119.33 24.36 119.66 23 120 C22.67 122.31 22.34 124.62 22 127 C16.34684612 126.39089824 11.60404905 124.35336781 6.4296875 122.140625 C5.51220734 121.75436951 4.59472717 121.36811401 3.64944458 120.97015381 C0.72203467 119.73614434 -2.20151554 118.49327663 -5.125 117.25 C-7.06745551 116.42908901 -9.01016158 115.60877064 -10.953125 114.7890625 C-14.67042742 113.2204701 -18.38521893 111.64613176 -22.09863281 110.06835938 C-25.00059583 108.83808136 -27.90681453 107.62360005 -30.83105469 106.44726562 C-31.87422852 106.02638672 -32.91740234 105.60550781 -33.9921875 105.171875 C-34.83894043 104.83768555 -35.68569336 104.50349609 -36.55810547 104.15917969 C-39.73849768 102.64943142 -42.27439203 101.26676362 -45 99 C-45.59179482 96.17671594 -45.76615187 94.20298835 -45.68115234 91.38574219 C-45.68246658 90.24369827 -45.68246658 90.24369827 -45.68380737 89.07858276 C-45.67963362 86.56696239 -45.63299784 84.05802744 -45.5859375 81.546875 C-45.57474445 79.80382751 -45.56620478 78.06076112 -45.56021118 76.31768799 C-45.53732103 71.73376184 -45.47839713 67.15097959 -45.4119873 62.56750488 C-45.35056821 57.88891068 -45.32319703 53.2101313 -45.29296875 48.53125 C-45.22865333 39.35366455 -45.12627223 30.17692746 -45 21 C-44.2575 21.33 -43.515 21.66 -42.75 22 C-39.86116688 23.22782871 -39.86116688 23.22782871 -36 23 C-36 21.68 -36 20.36 -36 19 C-37.32 18.34 -38.64 17.68 -40 17 C-40 16.34 -40 15.68 -40 15 C-35.11502904 12.68558563 -30.22212668 10.38923077 -25.32104492 8.10913086 C-23.65533673 7.33115192 -21.99189228 6.54830671 -20.33081055 5.76049805 C-17.94119043 4.62819673 -15.54394572 3.51371015 -13.14453125 2.40234375 C-12.4047554 2.047202 -11.66497955 1.69206024 -10.90278625 1.32615662 C-6.93557887 -0.48882971 -4.29200302 -1.6690587 0 0 Z " fill="#FB517A" transform="translate(103,67)"/>
<path d="M0 0 C0.80018555 0.37158737 1.60037109 0.74317474 2.42480469 1.12602234 C5.0159666 2.33045587 7.60364577 3.54218448 10.19140625 4.75390625 C11.9613848 5.57792392 13.73164913 6.40132799 15.50219727 7.22412109 C18.13717125 8.44867407 20.77198599 9.67355261 23.40586853 10.90045166 C30.31711457 14.11933962 37.24612562 17.29652008 44.19140625 20.44140625 C45.08851318 20.8480249 45.98562012 21.25464355 46.90991211 21.67358398 C48.85741823 22.5556117 50.80556498 23.43622484 52.75390625 24.31640625 C52.75390625 24.97640625 52.75390625 25.63640625 52.75390625 26.31640625 C51.76390625 26.97640625 50.77390625 27.63640625 49.75390625 28.31640625 C49.75390625 29.63640625 49.75390625 30.95640625 49.75390625 32.31640625 C52.77876406 31.72823945 55.76777239 31.07570097 58.75390625 30.31640625 C58.95359454 34.42345667 59.09770326 38.52858277 59.19335938 42.6394043 C59.23327692 44.03346024 59.28763796 45.42718804 59.35742188 46.82006836 C59.99378285 59.8607893 59.99378285 59.8607893 54.99609375 65.44140625 C53.59940867 66.7518437 52.18692057 68.04579793 50.75390625 69.31640625 C48.60146062 71.99842183 46.50567957 74.71298977 44.41796875 77.4453125 C43.86882812 78.06277344 43.3196875 78.68023437 42.75390625 79.31640625 C42.09390625 79.31640625 41.43390625 79.31640625 40.75390625 79.31640625 C39.4140625 77.76953125 39.4140625 77.76953125 37.81640625 75.56640625 C34.02973023 70.54649128 29.88126487 65.99853041 25.59765625 61.40625 C23.55829804 59.21691272 21.6001997 56.97347827 19.65625 54.69921875 C15.14242697 49.51921006 10.27673399 44.68939847 5.41137695 39.84350586 C3.81931659 38.25680679 2.23267635 36.66482883 0.64648438 35.07226562 C-4.81179779 29.60993445 -10.34737226 24.30568549 -16.24609375 19.31640625 C-17.50474319 18.22622594 -18.76256118 17.13508493 -20.01953125 16.04296875 C-21.21969613 15.00870139 -22.42021379 13.97484325 -23.62109375 12.94140625 C-24.54341797 12.14283203 -24.54341797 12.14283203 -25.484375 11.328125 C-28.6627413 8.53099255 -28.6627413 8.53099255 -32.24609375 6.31640625 C-32.24609375 5.65640625 -32.24609375 4.99640625 -32.24609375 4.31640625 C-29.19450168 2.77293345 -26.12838557 1.26081354 -23.05859375 -0.24609375 C-22.19427734 -0.68373047 -21.32996094 -1.12136719 -20.43945312 -1.57226562 C-19.59833984 -1.98154297 -18.75722656 -2.39082031 -17.890625 -2.8125 C-17.12081299 -3.1947876 -16.35100098 -3.5770752 -15.55786133 -3.97094727 C-10.0606667 -5.66556244 -4.90410567 -2.31028986 0 0 Z " fill="#FA5179" transform="translate(139.24609375,57.68359375)"/>
<path d="M0 0 C0.66 0 1.32 0 2 0 C3.51220703 1.71240234 3.51220703 1.71240234 5.2578125 4.0859375 C5.88300781 4.93414062 6.50820312 5.78234375 7.15234375 6.65625 C8.12880859 8.00203125 8.12880859 8.00203125 9.125 9.375 C9.78371094 10.26445312 10.44242188 11.15390625 11.12109375 12.0703125 C16 18.73714092 16 18.73714092 16 21 C14.85225098 21.47308594 13.70450195 21.94617188 12.52197266 22.43359375 C8.17085317 24.22783666 3.82108849 26.02534513 -0.52832031 27.82373047 C-2.39352511 28.59444717 -4.2590728 29.36433469 -6.125 30.13330078 C-8.84210559 31.25322846 -11.55808372 32.37583192 -14.2734375 33.5 C-15.16754333 33.86971924 -16.06164917 34.23943848 -16.98284912 34.62036133 C-21.45075745 36.47958737 -25.89059983 38.38367213 -30.29785156 40.3828125 C-31.54545761 40.94838867 -31.54545761 40.94838867 -32.81826782 41.52539062 C-34.39035803 42.24319528 -35.95920909 42.96814924 -37.52426147 43.70117188 C-39.32416577 44.52521501 -41.15956203 45.27096594 -43 46 C-43.66 45.67 -44.32 45.34 -45 45 C-44.23816406 44.31035156 -43.47632813 43.62070313 -42.69140625 42.91015625 C-36.29334023 37.09562381 -30.06225415 31.16697639 -24 25 C-21.04996247 22.03970147 -18.08603006 19.09375311 -15.1171875 16.15234375 C-13.70307408 14.74744708 -12.2890127 13.34249804 -10.875 11.9375 C-10.15957031 11.23044922 -9.44414062 10.52339844 -8.70703125 9.79492188 C-8.01738281 9.10849609 -7.32773438 8.42207031 -6.6171875 7.71484375 C-5.99440918 7.09730225 -5.37163086 6.47976074 -4.72998047 5.84350586 C-2.93228667 4.00852977 -2.93228667 4.00852977 -1.39892578 1.76782227 C-0.93728027 1.18444092 -0.47563477 0.60105957 0 0 Z " fill="#F95179" transform="translate(180,147)"/>
<path d="M0 0 C0.33 0 0.66 0 1 0 C1 10.56 1 21.12 1 32 C-1.84783228 29.15216772 -4.23756408 26.25412344 -6.6875 23.0625 C-7.49574219 22.02222656 -8.30398437 20.98195312 -9.13671875 19.91015625 C-11 17 -11 17 -11 13 C-9.1015625 10.52734375 -9.1015625 10.52734375 -6.625 7.9375 C-4.16109626 5.33671272 -1.99021852 2.98532778 0 0 Z " fill="#E84E75" transform="translate(197,127)"/>
<path d="M0 0 C1.06927734 0.12568359 1.06927734 0.12568359 2.16015625 0.25390625 C7.69019573 0.84189161 12.54028471 1.09194306 18 0 C18 1.65 18 3.3 18 5 C16.02 5.66 14.04 6.32 12 7 C12 9.64 12 12.28 12 15 C10.34385343 15.38218767 8.67542976 15.71395102 7 16 C6 15 6 15 5.90234375 13.15234375 C5.93489583 11.1015625 5.96744792 9.05078125 6 7 C5.21625 6.87625 4.4325 6.7525 3.625 6.625 C1 6 1 6 -1 4 C-0.625 1.875 -0.625 1.875 0 0 Z " fill="#2B2E42" transform="translate(119,113)"/>
<path d="M0 0 C0.57234375 0.21527344 1.1446875 0.43054688 1.734375 0.65234375 C2.064375 1.97234375 2.394375 3.29234375 2.734375 4.65234375 C-4.55133929 9.22377232 -4.55133929 9.22377232 -9.265625 8.65234375 C-9.595625 7.33234375 -9.925625 6.01234375 -10.265625 4.65234375 C-9.02618224 3.78292881 -7.77355441 2.93228918 -6.515625 2.08984375 C-5.81953125 1.61417969 -5.1234375 1.13851562 -4.40625 0.6484375 C-2.265625 -0.34765625 -2.265625 -0.34765625 0 0 Z " fill="#352F44" transform="translate(182.265625,89.34765625)"/>
<path d="M0 0 C4.13587618 0.47721648 7.49795014 2.9122395 11 5 C10.67 6.32 10.34 7.64 10 9 C8.265625 9.65234375 8.265625 9.65234375 6 10 C3.859375 9.00390625 3.859375 9.00390625 1.75 7.5625 C1.04359375 7.08941406 0.3371875 6.61632812 -0.390625 6.12890625 C-0.92171875 5.75636719 -1.4528125 5.38382812 -2 5 C-1.125 1.125 -1.125 1.125 0 0 Z " fill="#352F44" transform="translate(73,89)"/>
<path d="M0 0 C-0.0625 2.3125 -0.0625 2.3125 -1 5 C-4.53248251 7.03797068 -6.84134254 8.12326143 -10.9375 7.6875 C-11.618125 7.460625 -12.29875 7.23375 -13 7 C-12.9375 5.25 -12.9375 5.25 -12 3 C-5.15121951 -1.87317073 -5.15121951 -1.87317073 0 0 Z " fill="#342F44" transform="translate(169,98)"/>
<path d="M0 0 C1.65 0.33 3.3 0.66 5 1 C5 4.63 5 8.26 5 12 C3.35 12.33 1.7 12.66 0 13 C-1 12 -1 12 -1.1328125 9.53125 C-1.13023438 8.5309375 -1.12765625 7.530625 -1.125 6.5 C-1.12757812 5.4996875 -1.13015625 4.499375 -1.1328125 3.46875 C-1 1 -1 1 0 0 Z " fill="#2F2E43" transform="translate(126,151)"/>
<path d="M0 0 C1.67542976 0.28604898 3.34385343 0.61781233 5 1 C5.05395478 2.62463842 5.09277195 4.24978541 5.125 5.875 C5.14820313 6.77992188 5.17140625 7.68484375 5.1953125 8.6171875 C5 11 5 11 3 13 C0.875 12.625 0.875 12.625 -1 12 C-1.02687279 10.18757948 -1.04633715 8.37504767 -1.0625 6.5625 C-1.07410156 5.55316406 -1.08570312 4.54382813 -1.09765625 3.50390625 C-1 1 -1 1 0 0 Z " fill="#2E2E42" transform="translate(126,169)"/>
<path d="M0 0 C1.67542976 0.28604898 3.34385343 0.61781233 5 1 C5.05395478 2.62463842 5.09277195 4.24978541 5.125 5.875 C5.14820313 6.77992188 5.17140625 7.68484375 5.1953125 8.6171875 C5 11 5 11 3 13 C0.875 12.625 0.875 12.625 -1 12 C-1.02687279 10.18757948 -1.04633715 8.37504767 -1.0625 6.5625 C-1.07410156 5.55316406 -1.08570312 4.54382813 -1.09765625 3.50390625 C-1 1 -1 1 0 0 Z " fill="#2E2E42" transform="translate(126,134)"/>
<path d="M0 0 C4.12751449 0.60698743 7.3321148 2.03810791 11 4 C11 5.65 11 7.3 11 9 C6.22423661 8.5317879 2.95523655 7.75668002 -1 5 C-0.67 3.35 -0.34 1.7 0 0 Z " fill="#2F2E43" transform="translate(88,97)"/>
<path d="M0 0 C4.12751449 0.60698743 7.3321148 2.03810791 11 4 C10.67 5.65 10.34 7.3 10 9 C5.6109185 8.48964169 2.66291938 7.47785723 -1 5 C-0.67 3.35 -0.34 1.7 0 0 Z " fill="#2D2E42" transform="translate(104,105)"/>
<path d="M0 0 C0.66 0.33 1.32 0.66 2 1 C1.54560547 1.4439209 1.09121094 1.8878418 0.62304688 2.34521484 C-1.42313518 4.34994859 -3.4616229 6.36233216 -5.5 8.375 C-6.21542969 9.07367188 -6.93085938 9.77234375 -7.66796875 10.4921875 C-8.68310547 11.49765625 -8.68310547 11.49765625 -9.71875 12.5234375 C-10.66137695 13.450354 -10.66137695 13.450354 -11.62304688 14.39599609 C-13.21712061 15.90059569 -13.21712061 15.90059569 -13 18 C-14.96466413 19.06775224 -16.96855359 20.06553465 -19 21 C-19.66 20.67 -20.32 20.34 -21 20 C-20.23816406 19.31035156 -19.47632813 18.62070313 -18.69140625 17.91015625 C-12.29460466 12.09629906 -6.04547836 6.1828756 0 0 Z " fill="#D24A6F" transform="translate(156,172)"/>
</svg>
